<mxfile host="app.diagrams.net" modified="2022-01-06T12:51:13.038Z" agent="5.0 (Windows NT 10.0; Win64; x64) AppleWebKit/537.36 (KHTML, like Gecko) Chrome/96.0.4664.110 Safari/537.36" etag="QOJ4wejtB5ldL6CpxkJP" version="15.5.2" type="github">
  <diagram id="_OafIggxyiPWW6BfsJ7w" name="Page-1">
    <mxGraphModel dx="1221" dy="644" grid="1" gridSize="10" guides="1" tooltips="1" connect="1" arrows="1" fold="1" page="1" pageScale="1" pageWidth="827" pageHeight="1169" math="0" shadow="0">
      <root>
        <mxCell id="0" />
        <mxCell id="1" parent="0" />
        <mxCell id="y1k2q47pjBvPzy8G8XjA-247" style="edgeStyle=orthogonalEdgeStyle;jumpSize=6;orthogonalLoop=1;jettySize=auto;html=1;exitX=1;exitY=0.5;exitDx=0;exitDy=0;entryX=0.652;entryY=0.054;entryDx=0;entryDy=0;entryPerimeter=0;fontFamily=Times New Roman;fontSize=21;endArrow=classic;endFill=1;endSize=6;strokeColor=#000000;strokeWidth=2;fillColor=#000000;curved=1;" edge="1" parent="1" source="y1k2q47pjBvPzy8G8XjA-232" target="y1k2q47pjBvPzy8G8XjA-242">
          <mxGeometry relative="1" as="geometry" />
        </mxCell>
        <mxCell id="y1k2q47pjBvPzy8G8XjA-232" value="" style="rounded=0;whiteSpace=wrap;html=1;fontFamily=Times New Roman;fontSize=21;align=center;" vertex="1" parent="1">
          <mxGeometry x="1020" y="1310" width="120" height="60" as="geometry" />
        </mxCell>
        <mxCell id="y1k2q47pjBvPzy8G8XjA-68" value="" style="rounded=0;whiteSpace=wrap;html=1;align=center;" vertex="1" parent="1">
          <mxGeometry x="180" y="1430" width="150" height="70" as="geometry" />
        </mxCell>
        <mxCell id="y1k2q47pjBvPzy8G8XjA-104" value="&lt;h6&gt;&lt;font style=&quot;font-size: 21px ; font-weight: normal&quot; face=&quot;Georgia&quot;&gt;ResBlock&lt;/font&gt;&lt;/h6&gt;" style="text;html=1;fontSize=24;fontStyle=1;verticalAlign=middle;align=center;" vertex="1" parent="1">
          <mxGeometry x="220" y="1480" width="70" height="10" as="geometry" />
        </mxCell>
        <mxCell id="y1k2q47pjBvPzy8G8XjA-103" style="rounded=0;orthogonalLoop=1;jettySize=auto;html=1;exitX=1;exitY=0.5;exitDx=0;exitDy=0;endArrow=classic;endFill=1;strokeColor=#000000;strokeWidth=4;fillColor=#000000;jumpSize=6;endSize=6;" edge="1" parent="1" source="y1k2q47pjBvPzy8G8XjA-68">
          <mxGeometry relative="1" as="geometry">
            <mxPoint x="380" y="1465" as="targetPoint" />
          </mxGeometry>
        </mxCell>
        <mxCell id="y1k2q47pjBvPzy8G8XjA-3" style="edgeStyle=orthogonalEdgeStyle;rounded=0;orthogonalLoop=1;jettySize=auto;html=1;exitX=1;exitY=0.5;exitDx=0;exitDy=0;entryX=0;entryY=0.5;entryDx=0;entryDy=0;" edge="1" parent="1" source="y1k2q47pjBvPzy8G8XjA-1" target="y1k2q47pjBvPzy8G8XjA-2">
          <mxGeometry relative="1" as="geometry" />
        </mxCell>
        <mxCell id="y1k2q47pjBvPzy8G8XjA-1" value="X" style="rounded=0;whiteSpace=wrap;html=1;" vertex="1" parent="1">
          <mxGeometry x="40" y="160" width="90" height="90" as="geometry" />
        </mxCell>
        <mxCell id="y1k2q47pjBvPzy8G8XjA-5" style="edgeStyle=orthogonalEdgeStyle;orthogonalLoop=1;jettySize=auto;html=1;exitX=1;exitY=0.5;exitDx=0;exitDy=0;entryX=0;entryY=0.5;entryDx=0;entryDy=0;rounded=0;shape=flexArrow;" edge="1" parent="1" source="y1k2q47pjBvPzy8G8XjA-2" target="y1k2q47pjBvPzy8G8XjA-4">
          <mxGeometry relative="1" as="geometry" />
        </mxCell>
        <mxCell id="y1k2q47pjBvPzy8G8XjA-2" value="resnet18" style="rounded=0;whiteSpace=wrap;html=1;fillColor=#d5e8d4;strokeColor=#82b366;" vertex="1" parent="1">
          <mxGeometry x="170" y="105" width="70" height="200" as="geometry" />
        </mxCell>
        <mxCell id="y1k2q47pjBvPzy8G8XjA-8" style="edgeStyle=orthogonalEdgeStyle;rounded=0;orthogonalLoop=1;jettySize=auto;html=1;entryX=0;entryY=0.5;entryDx=0;entryDy=0;shape=flexArrow;" edge="1" parent="1" source="y1k2q47pjBvPzy8G8XjA-4" target="y1k2q47pjBvPzy8G8XjA-6">
          <mxGeometry relative="1" as="geometry" />
        </mxCell>
        <mxCell id="y1k2q47pjBvPzy8G8XjA-4" value="resnet18" style="rounded=0;whiteSpace=wrap;html=1;fillColor=#d5e8d4;strokeColor=#82b366;" vertex="1" parent="1">
          <mxGeometry x="280" y="105" width="70" height="200" as="geometry" />
        </mxCell>
        <mxCell id="y1k2q47pjBvPzy8G8XjA-9" style="edgeStyle=orthogonalEdgeStyle;rounded=0;orthogonalLoop=1;jettySize=auto;html=1;exitX=1;exitY=0.5;exitDx=0;exitDy=0;entryX=0;entryY=0.5;entryDx=0;entryDy=0;shape=flexArrow;" edge="1" parent="1" source="y1k2q47pjBvPzy8G8XjA-6" target="y1k2q47pjBvPzy8G8XjA-7">
          <mxGeometry relative="1" as="geometry" />
        </mxCell>
        <mxCell id="y1k2q47pjBvPzy8G8XjA-6" value="resnet18" style="rounded=0;whiteSpace=wrap;html=1;fillColor=#d5e8d4;strokeColor=#82b366;" vertex="1" parent="1">
          <mxGeometry x="390" y="105" width="70" height="200" as="geometry" />
        </mxCell>
        <mxCell id="y1k2q47pjBvPzy8G8XjA-12" style="edgeStyle=orthogonalEdgeStyle;shape=flexArrow;rounded=0;orthogonalLoop=1;jettySize=auto;html=1;exitX=1;exitY=0.5;exitDx=0;exitDy=0;entryX=0;entryY=0.5;entryDx=0;entryDy=0;" edge="1" parent="1" source="y1k2q47pjBvPzy8G8XjA-7" target="y1k2q47pjBvPzy8G8XjA-11">
          <mxGeometry relative="1" as="geometry" />
        </mxCell>
        <mxCell id="y1k2q47pjBvPzy8G8XjA-7" value="resnet18" style="rounded=0;whiteSpace=wrap;html=1;fillColor=#d5e8d4;strokeColor=#82b366;" vertex="1" parent="1">
          <mxGeometry x="500" y="105" width="70" height="200" as="geometry" />
        </mxCell>
        <mxCell id="y1k2q47pjBvPzy8G8XjA-14" style="edgeStyle=orthogonalEdgeStyle;shape=flexArrow;rounded=0;orthogonalLoop=1;jettySize=auto;html=1;exitX=1;exitY=0.5;exitDx=0;exitDy=0;entryX=0;entryY=0.5;entryDx=0;entryDy=0;" edge="1" parent="1" source="y1k2q47pjBvPzy8G8XjA-11" target="y1k2q47pjBvPzy8G8XjA-13">
          <mxGeometry relative="1" as="geometry" />
        </mxCell>
        <mxCell id="y1k2q47pjBvPzy8G8XjA-11" value="fc" style="rounded=0;whiteSpace=wrap;html=1;fillColor=#f8cecc;strokeColor=#b85450;" vertex="1" parent="1">
          <mxGeometry x="610" y="155" width="40" height="100" as="geometry" />
        </mxCell>
        <mxCell id="y1k2q47pjBvPzy8G8XjA-18" style="edgeStyle=orthogonalEdgeStyle;shape=flexArrow;rounded=0;orthogonalLoop=1;jettySize=auto;html=1;exitX=1;exitY=0.5;exitDx=0;exitDy=0;entryX=0.427;entryY=1.01;entryDx=0;entryDy=0;entryPerimeter=0;" edge="1" parent="1" source="y1k2q47pjBvPzy8G8XjA-13" target="y1k2q47pjBvPzy8G8XjA-16">
          <mxGeometry relative="1" as="geometry" />
        </mxCell>
        <mxCell id="y1k2q47pjBvPzy8G8XjA-42" style="edgeStyle=orthogonalEdgeStyle;shape=flexArrow;rounded=0;orthogonalLoop=1;jettySize=auto;html=1;exitX=1;exitY=0.5;exitDx=0;exitDy=0;entryX=0.5;entryY=0;entryDx=0;entryDy=0;" edge="1" parent="1" source="y1k2q47pjBvPzy8G8XjA-13" target="y1k2q47pjBvPzy8G8XjA-39">
          <mxGeometry relative="1" as="geometry" />
        </mxCell>
        <mxCell id="y1k2q47pjBvPzy8G8XjA-13" value="softmax&lt;br&gt;logits" style="shape=parallelogram;perimeter=parallelogramPerimeter;whiteSpace=wrap;html=1;fixedSize=1;fillColor=#ffe6cc;strokeColor=#d79b00;" vertex="1" parent="1">
          <mxGeometry x="690" y="180" width="90" height="50" as="geometry" />
        </mxCell>
        <mxCell id="y1k2q47pjBvPzy8G8XjA-17" style="edgeStyle=orthogonalEdgeStyle;shape=flexArrow;rounded=0;orthogonalLoop=1;jettySize=auto;html=1;exitX=1;exitY=0.5;exitDx=0;exitDy=0;entryX=0.5;entryY=0;entryDx=0;entryDy=0;" edge="1" parent="1" source="y1k2q47pjBvPzy8G8XjA-15" target="y1k2q47pjBvPzy8G8XjA-16">
          <mxGeometry relative="1" as="geometry" />
        </mxCell>
        <mxCell id="y1k2q47pjBvPzy8G8XjA-15" value="y" style="rounded=0;whiteSpace=wrap;html=1;" vertex="1" parent="1">
          <mxGeometry x="680" y="15" width="90" height="90" as="geometry" />
        </mxCell>
        <mxCell id="y1k2q47pjBvPzy8G8XjA-16" value="&lt;span style=&quot;font-size: 10px&quot;&gt;L&lt;sub&gt;CE&lt;/sub&gt;&lt;/span&gt;" style="shape=parallelogram;perimeter=parallelogramPerimeter;whiteSpace=wrap;html=1;fixedSize=1;fillColor=#e1d5e7;strokeColor=#9673a6;" vertex="1" parent="1">
          <mxGeometry x="790" y="95" width="120" height="60" as="geometry" />
        </mxCell>
        <mxCell id="y1k2q47pjBvPzy8G8XjA-19" style="edgeStyle=orthogonalEdgeStyle;rounded=0;orthogonalLoop=1;jettySize=auto;html=1;exitX=1;exitY=0.5;exitDx=0;exitDy=0;entryX=0;entryY=0.5;entryDx=0;entryDy=0;shape=flexArrow;" edge="1" parent="1" source="y1k2q47pjBvPzy8G8XjA-20" target="y1k2q47pjBvPzy8G8XjA-22">
          <mxGeometry relative="1" as="geometry" />
        </mxCell>
        <mxCell id="y1k2q47pjBvPzy8G8XjA-20" value="&lt;span style=&quot;font-size: 10px&quot;&gt;X&lt;/span&gt;&lt;span style=&quot;font-size: 8.33333px&quot;&gt;&#39;&lt;/span&gt;" style="rounded=0;whiteSpace=wrap;html=1;" vertex="1" parent="1">
          <mxGeometry x="40" y="435" width="90" height="90" as="geometry" />
        </mxCell>
        <mxCell id="y1k2q47pjBvPzy8G8XjA-21" style="edgeStyle=orthogonalEdgeStyle;orthogonalLoop=1;jettySize=auto;html=1;exitX=1;exitY=0.5;exitDx=0;exitDy=0;entryX=0;entryY=0.5;entryDx=0;entryDy=0;rounded=0;shape=flexArrow;" edge="1" parent="1" source="y1k2q47pjBvPzy8G8XjA-22" target="y1k2q47pjBvPzy8G8XjA-24">
          <mxGeometry relative="1" as="geometry" />
        </mxCell>
        <mxCell id="y1k2q47pjBvPzy8G8XjA-22" value="resnet18" style="rounded=0;whiteSpace=wrap;html=1;fillColor=#d5e8d4;strokeColor=#82b366;" vertex="1" parent="1">
          <mxGeometry x="170" y="380" width="70" height="200" as="geometry" />
        </mxCell>
        <mxCell id="y1k2q47pjBvPzy8G8XjA-23" style="edgeStyle=orthogonalEdgeStyle;rounded=0;orthogonalLoop=1;jettySize=auto;html=1;entryX=0;entryY=0.5;entryDx=0;entryDy=0;shape=flexArrow;" edge="1" parent="1" source="y1k2q47pjBvPzy8G8XjA-24" target="y1k2q47pjBvPzy8G8XjA-26">
          <mxGeometry relative="1" as="geometry" />
        </mxCell>
        <mxCell id="y1k2q47pjBvPzy8G8XjA-24" value="resnet18" style="rounded=0;whiteSpace=wrap;html=1;fillColor=#d5e8d4;strokeColor=#82b366;" vertex="1" parent="1">
          <mxGeometry x="280" y="380" width="70" height="200" as="geometry" />
        </mxCell>
        <mxCell id="y1k2q47pjBvPzy8G8XjA-25" style="edgeStyle=orthogonalEdgeStyle;rounded=0;orthogonalLoop=1;jettySize=auto;html=1;exitX=1;exitY=0.5;exitDx=0;exitDy=0;entryX=0;entryY=0.5;entryDx=0;entryDy=0;shape=flexArrow;" edge="1" parent="1" source="y1k2q47pjBvPzy8G8XjA-26" target="y1k2q47pjBvPzy8G8XjA-28">
          <mxGeometry relative="1" as="geometry" />
        </mxCell>
        <mxCell id="y1k2q47pjBvPzy8G8XjA-26" value="resnet18" style="rounded=0;whiteSpace=wrap;html=1;fillColor=#d5e8d4;strokeColor=#82b366;" vertex="1" parent="1">
          <mxGeometry x="390" y="380" width="70" height="200" as="geometry" />
        </mxCell>
        <mxCell id="y1k2q47pjBvPzy8G8XjA-27" style="edgeStyle=orthogonalEdgeStyle;shape=flexArrow;rounded=0;orthogonalLoop=1;jettySize=auto;html=1;exitX=1;exitY=0.5;exitDx=0;exitDy=0;entryX=0;entryY=0.5;entryDx=0;entryDy=0;" edge="1" parent="1" source="y1k2q47pjBvPzy8G8XjA-28" target="y1k2q47pjBvPzy8G8XjA-29">
          <mxGeometry relative="1" as="geometry" />
        </mxCell>
        <mxCell id="y1k2q47pjBvPzy8G8XjA-37" style="edgeStyle=orthogonalEdgeStyle;shape=flexArrow;rounded=0;orthogonalLoop=1;jettySize=auto;html=1;exitX=0.5;exitY=1;exitDx=0;exitDy=0;entryX=0;entryY=0.5;entryDx=0;entryDy=0;" edge="1" parent="1" source="y1k2q47pjBvPzy8G8XjA-28" target="y1k2q47pjBvPzy8G8XjA-32">
          <mxGeometry relative="1" as="geometry">
            <Array as="points">
              <mxPoint x="535" y="655" />
            </Array>
          </mxGeometry>
        </mxCell>
        <mxCell id="y1k2q47pjBvPzy8G8XjA-28" value="resnet18" style="rounded=0;whiteSpace=wrap;html=1;fillColor=#d5e8d4;strokeColor=#82b366;" vertex="1" parent="1">
          <mxGeometry x="500" y="380" width="70" height="200" as="geometry" />
        </mxCell>
        <mxCell id="y1k2q47pjBvPzy8G8XjA-31" style="edgeStyle=orthogonalEdgeStyle;shape=flexArrow;rounded=0;orthogonalLoop=1;jettySize=auto;html=1;exitX=1;exitY=0.5;exitDx=0;exitDy=0;" edge="1" parent="1" source="y1k2q47pjBvPzy8G8XjA-29" target="y1k2q47pjBvPzy8G8XjA-30">
          <mxGeometry relative="1" as="geometry" />
        </mxCell>
        <mxCell id="y1k2q47pjBvPzy8G8XjA-29" value="fc" style="rounded=0;whiteSpace=wrap;html=1;fillColor=#f8cecc;strokeColor=#b85450;" vertex="1" parent="1">
          <mxGeometry x="610" y="430" width="40" height="100" as="geometry" />
        </mxCell>
        <mxCell id="y1k2q47pjBvPzy8G8XjA-40" style="edgeStyle=orthogonalEdgeStyle;shape=flexArrow;rounded=0;orthogonalLoop=1;jettySize=auto;html=1;exitX=1;exitY=0.5;exitDx=0;exitDy=0;" edge="1" parent="1" source="y1k2q47pjBvPzy8G8XjA-30" target="y1k2q47pjBvPzy8G8XjA-39">
          <mxGeometry relative="1" as="geometry" />
        </mxCell>
        <mxCell id="y1k2q47pjBvPzy8G8XjA-41" style="edgeStyle=orthogonalEdgeStyle;shape=flexArrow;rounded=0;orthogonalLoop=1;jettySize=auto;html=1;exitX=1;exitY=0.5;exitDx=0;exitDy=0;" edge="1" parent="1" source="y1k2q47pjBvPzy8G8XjA-30" target="y1k2q47pjBvPzy8G8XjA-38">
          <mxGeometry relative="1" as="geometry" />
        </mxCell>
        <mxCell id="y1k2q47pjBvPzy8G8XjA-30" value="softmax&lt;br&gt;logits" style="shape=parallelogram;perimeter=parallelogramPerimeter;whiteSpace=wrap;html=1;fixedSize=1;fillColor=#ffe6cc;strokeColor=#d79b00;" vertex="1" parent="1">
          <mxGeometry x="680" y="455" width="90" height="50" as="geometry" />
        </mxCell>
        <mxCell id="y1k2q47pjBvPzy8G8XjA-43" style="edgeStyle=orthogonalEdgeStyle;shape=flexArrow;rounded=0;orthogonalLoop=1;jettySize=auto;html=1;exitX=1;exitY=0.5;exitDx=0;exitDy=0;entryX=0.5;entryY=1;entryDx=0;entryDy=0;" edge="1" parent="1" source="y1k2q47pjBvPzy8G8XjA-32" target="y1k2q47pjBvPzy8G8XjA-38">
          <mxGeometry relative="1" as="geometry" />
        </mxCell>
        <mxCell id="y1k2q47pjBvPzy8G8XjA-32" value="linear" style="shape=parallelogram;perimeter=parallelogramPerimeter;whiteSpace=wrap;html=1;fixedSize=1;fillColor=#ffe6cc;strokeColor=#d79b00;" vertex="1" parent="1">
          <mxGeometry x="680" y="630" width="90" height="50" as="geometry" />
        </mxCell>
        <mxCell id="y1k2q47pjBvPzy8G8XjA-38" value="&lt;span style=&quot;font-size: 10px&quot;&gt;L&lt;sub&gt;res&lt;/sub&gt;&amp;nbsp;(f&lt;sub&gt;1&lt;/sub&gt;&amp;nbsp;(x&#39;),A&lt;sub&gt;res&lt;/sub&gt;)&lt;/span&gt;" style="shape=parallelogram;perimeter=parallelogramPerimeter;whiteSpace=wrap;html=1;fixedSize=1;fillColor=#e1d5e7;strokeColor=#9673a6;" vertex="1" parent="1">
          <mxGeometry x="860" y="520" width="120" height="60" as="geometry" />
        </mxCell>
        <mxCell id="y1k2q47pjBvPzy8G8XjA-39" value="&lt;sub&gt;&lt;span style=&quot;font-size: 10px&quot;&gt;Ares&lt;/span&gt;&lt;/sub&gt;&lt;span style=&quot;font-size: 10px&quot;&gt;&amp;nbsp;= f(x)-f(x&lt;/span&gt;&lt;span style=&quot;font-size: 8.33333px&quot;&gt;&#39;&lt;/span&gt;&lt;span style=&quot;font-size: 10px&quot;&gt;)&lt;/span&gt;" style="shape=parallelogram;perimeter=parallelogramPerimeter;whiteSpace=wrap;html=1;fixedSize=1;fillColor=#e1d5e7;strokeColor=#9673a6;" vertex="1" parent="1">
          <mxGeometry x="820" y="310" width="120" height="60" as="geometry" />
        </mxCell>
        <mxCell id="y1k2q47pjBvPzy8G8XjA-54" style="edgeStyle=orthogonalEdgeStyle;rounded=0;orthogonalLoop=1;jettySize=auto;html=1;exitX=1;exitY=0.5;exitDx=0;exitDy=0;entryX=0;entryY=0.5;entryDx=0;entryDy=0;" edge="1" parent="1" source="y1k2q47pjBvPzy8G8XjA-50" target="y1k2q47pjBvPzy8G8XjA-53">
          <mxGeometry relative="1" as="geometry" />
        </mxCell>
        <mxCell id="y1k2q47pjBvPzy8G8XjA-50" value="" style="ellipse;whiteSpace=wrap;html=1;aspect=fixed;fillColor=#CCFFCC;strokeColor=#000000;" vertex="1" parent="1">
          <mxGeometry x="190" y="1460" width="10" height="10" as="geometry" />
        </mxCell>
        <mxCell id="y1k2q47pjBvPzy8G8XjA-58" style="edgeStyle=orthogonalEdgeStyle;rounded=0;orthogonalLoop=1;jettySize=auto;html=1;exitX=1;exitY=0.5;exitDx=0;exitDy=0;entryX=0;entryY=0.5;entryDx=0;entryDy=0;" edge="1" parent="1" source="y1k2q47pjBvPzy8G8XjA-53" target="y1k2q47pjBvPzy8G8XjA-55">
          <mxGeometry relative="1" as="geometry" />
        </mxCell>
        <mxCell id="y1k2q47pjBvPzy8G8XjA-53" value="" style="ellipse;whiteSpace=wrap;html=1;aspect=fixed;fillColor=#99FF99;strokeColor=#000000;" vertex="1" parent="1">
          <mxGeometry x="230" y="1460" width="10" height="10" as="geometry" />
        </mxCell>
        <mxCell id="y1k2q47pjBvPzy8G8XjA-59" style="edgeStyle=orthogonalEdgeStyle;rounded=0;orthogonalLoop=1;jettySize=auto;html=1;exitX=1;exitY=0.5;exitDx=0;exitDy=0;entryX=0;entryY=0.5;entryDx=0;entryDy=0;" edge="1" parent="1" source="y1k2q47pjBvPzy8G8XjA-55" target="y1k2q47pjBvPzy8G8XjA-56">
          <mxGeometry relative="1" as="geometry" />
        </mxCell>
        <mxCell id="y1k2q47pjBvPzy8G8XjA-55" value="" style="ellipse;whiteSpace=wrap;html=1;aspect=fixed;fillColor=#33FF33;strokeColor=#000000;" vertex="1" parent="1">
          <mxGeometry x="270" y="1460" width="10" height="10" as="geometry" />
        </mxCell>
        <mxCell id="y1k2q47pjBvPzy8G8XjA-56" value="" style="ellipse;whiteSpace=wrap;html=1;aspect=fixed;fillColor=#00FF00;strokeColor=#000000;" vertex="1" parent="1">
          <mxGeometry x="310" y="1460" width="10" height="10" as="geometry" />
        </mxCell>
        <mxCell id="y1k2q47pjBvPzy8G8XjA-69" value="" style="endArrow=none;html=1;rounded=0;exitX=0.5;exitY=0;exitDx=0;exitDy=0;entryX=0.5;entryY=0;entryDx=0;entryDy=0;edgeStyle=orthogonalEdgeStyle;curved=1;" edge="1" parent="1" source="y1k2q47pjBvPzy8G8XjA-50" target="y1k2q47pjBvPzy8G8XjA-56">
          <mxGeometry width="50" height="50" relative="1" as="geometry">
            <mxPoint x="200" y="1460" as="sourcePoint" />
            <mxPoint x="250" y="1410" as="targetPoint" />
            <Array as="points">
              <mxPoint x="195" y="1440" />
              <mxPoint x="315" y="1440" />
            </Array>
          </mxGeometry>
        </mxCell>
        <mxCell id="y1k2q47pjBvPzy8G8XjA-99" style="edgeStyle=orthogonalEdgeStyle;curved=1;rounded=0;orthogonalLoop=1;jettySize=auto;html=1;exitX=1;exitY=0.5;exitDx=0;exitDy=0;entryX=0;entryY=0.5;entryDx=0;entryDy=0;endArrow=classic;endFill=1;strokeColor=#000000;strokeWidth=4;" edge="1" parent="1">
          <mxGeometry relative="1" as="geometry">
            <mxPoint x="530" y="1465" as="sourcePoint" />
            <mxPoint x="580" y="1465" as="targetPoint" />
          </mxGeometry>
        </mxCell>
        <mxCell id="y1k2q47pjBvPzy8G8XjA-100" style="edgeStyle=orthogonalEdgeStyle;curved=1;rounded=0;orthogonalLoop=1;jettySize=auto;html=1;exitX=1;exitY=0.5;exitDx=0;exitDy=0;entryX=0;entryY=0.5;entryDx=0;entryDy=0;endArrow=classic;endFill=1;strokeColor=#000000;strokeWidth=4;" edge="1" parent="1">
          <mxGeometry relative="1" as="geometry">
            <mxPoint x="730" y="1465" as="sourcePoint" />
            <mxPoint x="780" y="1465" as="targetPoint" />
          </mxGeometry>
        </mxCell>
        <mxCell id="y1k2q47pjBvPzy8G8XjA-115" value="" style="rounded=0;whiteSpace=wrap;html=1;align=center;" vertex="1" parent="1">
          <mxGeometry x="380" y="1430" width="150" height="70" as="geometry" />
        </mxCell>
        <mxCell id="y1k2q47pjBvPzy8G8XjA-116" style="edgeStyle=orthogonalEdgeStyle;rounded=0;orthogonalLoop=1;jettySize=auto;html=1;exitX=1;exitY=0.5;exitDx=0;exitDy=0;entryX=0;entryY=0.5;entryDx=0;entryDy=0;" edge="1" parent="1" source="y1k2q47pjBvPzy8G8XjA-117" target="y1k2q47pjBvPzy8G8XjA-119">
          <mxGeometry relative="1" as="geometry" />
        </mxCell>
        <mxCell id="y1k2q47pjBvPzy8G8XjA-117" value="" style="ellipse;whiteSpace=wrap;html=1;aspect=fixed;fillColor=#FFCC99;strokeColor=#000000;" vertex="1" parent="1">
          <mxGeometry x="390" y="1460" width="10" height="10" as="geometry" />
        </mxCell>
        <mxCell id="y1k2q47pjBvPzy8G8XjA-118" style="edgeStyle=orthogonalEdgeStyle;rounded=0;orthogonalLoop=1;jettySize=auto;html=1;exitX=1;exitY=0.5;exitDx=0;exitDy=0;entryX=0;entryY=0.5;entryDx=0;entryDy=0;" edge="1" parent="1" source="y1k2q47pjBvPzy8G8XjA-119" target="y1k2q47pjBvPzy8G8XjA-121">
          <mxGeometry relative="1" as="geometry" />
        </mxCell>
        <mxCell id="y1k2q47pjBvPzy8G8XjA-119" value="" style="ellipse;whiteSpace=wrap;html=1;aspect=fixed;fillColor=#FFB366;strokeColor=default;" vertex="1" parent="1">
          <mxGeometry x="430" y="1460" width="10" height="10" as="geometry" />
        </mxCell>
        <mxCell id="y1k2q47pjBvPzy8G8XjA-120" style="edgeStyle=orthogonalEdgeStyle;rounded=0;orthogonalLoop=1;jettySize=auto;html=1;exitX=1;exitY=0.5;exitDx=0;exitDy=0;entryX=0;entryY=0.5;entryDx=0;entryDy=0;" edge="1" parent="1" source="y1k2q47pjBvPzy8G8XjA-121" target="y1k2q47pjBvPzy8G8XjA-122">
          <mxGeometry relative="1" as="geometry" />
        </mxCell>
        <mxCell id="y1k2q47pjBvPzy8G8XjA-121" value="" style="ellipse;whiteSpace=wrap;html=1;aspect=fixed;fillColor=#FFB366;strokeColor=#000000;" vertex="1" parent="1">
          <mxGeometry x="470" y="1460" width="10" height="10" as="geometry" />
        </mxCell>
        <mxCell id="y1k2q47pjBvPzy8G8XjA-122" value="" style="ellipse;whiteSpace=wrap;html=1;aspect=fixed;fillColor=#FF8000;strokeColor=#36393d;" vertex="1" parent="1">
          <mxGeometry x="510" y="1460" width="10" height="10" as="geometry" />
        </mxCell>
        <mxCell id="y1k2q47pjBvPzy8G8XjA-123" value="" style="endArrow=none;html=1;rounded=0;exitX=0.5;exitY=0;exitDx=0;exitDy=0;entryX=0.5;entryY=0;entryDx=0;entryDy=0;edgeStyle=orthogonalEdgeStyle;curved=1;" edge="1" parent="1" source="y1k2q47pjBvPzy8G8XjA-117" target="y1k2q47pjBvPzy8G8XjA-122">
          <mxGeometry width="50" height="50" relative="1" as="geometry">
            <mxPoint x="400" y="1460" as="sourcePoint" />
            <mxPoint x="450" y="1410" as="targetPoint" />
            <Array as="points">
              <mxPoint x="395" y="1440" />
              <mxPoint x="515" y="1440" />
            </Array>
          </mxGeometry>
        </mxCell>
        <mxCell id="y1k2q47pjBvPzy8G8XjA-124" value="&lt;h6&gt;&lt;font style=&quot;font-size: 21px ; font-weight: normal&quot; face=&quot;Georgia&quot;&gt;ResBlock&lt;/font&gt;&lt;/h6&gt;" style="text;strokeColor=none;fillColor=none;html=1;fontSize=24;fontStyle=1;verticalAlign=middle;align=center;" vertex="1" parent="1">
          <mxGeometry x="420" y="1480" width="70" height="10" as="geometry" />
        </mxCell>
        <mxCell id="y1k2q47pjBvPzy8G8XjA-135" value="" style="rounded=0;whiteSpace=wrap;html=1;align=center;" vertex="1" parent="1">
          <mxGeometry x="580" y="1430" width="150" height="70" as="geometry" />
        </mxCell>
        <mxCell id="y1k2q47pjBvPzy8G8XjA-136" style="edgeStyle=orthogonalEdgeStyle;rounded=0;orthogonalLoop=1;jettySize=auto;html=1;exitX=1;exitY=0.5;exitDx=0;exitDy=0;entryX=0;entryY=0.5;entryDx=0;entryDy=0;" edge="1" parent="1" source="y1k2q47pjBvPzy8G8XjA-137" target="y1k2q47pjBvPzy8G8XjA-139">
          <mxGeometry relative="1" as="geometry" />
        </mxCell>
        <mxCell id="y1k2q47pjBvPzy8G8XjA-137" value="" style="ellipse;whiteSpace=wrap;html=1;aspect=fixed;fillColor=#99FFFF;strokeColor=#000000;" vertex="1" parent="1">
          <mxGeometry x="590" y="1460" width="10" height="10" as="geometry" />
        </mxCell>
        <mxCell id="y1k2q47pjBvPzy8G8XjA-138" style="edgeStyle=orthogonalEdgeStyle;rounded=0;orthogonalLoop=1;jettySize=auto;html=1;exitX=1;exitY=0.5;exitDx=0;exitDy=0;entryX=0;entryY=0.5;entryDx=0;entryDy=0;" edge="1" parent="1" source="y1k2q47pjBvPzy8G8XjA-139" target="y1k2q47pjBvPzy8G8XjA-141">
          <mxGeometry relative="1" as="geometry" />
        </mxCell>
        <mxCell id="y1k2q47pjBvPzy8G8XjA-139" value="" style="ellipse;whiteSpace=wrap;html=1;aspect=fixed;fillColor=#66FFFF;strokeColor=#000000;" vertex="1" parent="1">
          <mxGeometry x="630" y="1460" width="10" height="10" as="geometry" />
        </mxCell>
        <mxCell id="y1k2q47pjBvPzy8G8XjA-140" style="edgeStyle=orthogonalEdgeStyle;rounded=0;orthogonalLoop=1;jettySize=auto;html=1;exitX=1;exitY=0.5;exitDx=0;exitDy=0;entryX=0;entryY=0.5;entryDx=0;entryDy=0;" edge="1" parent="1" source="y1k2q47pjBvPzy8G8XjA-141" target="y1k2q47pjBvPzy8G8XjA-142">
          <mxGeometry relative="1" as="geometry" />
        </mxCell>
        <mxCell id="y1k2q47pjBvPzy8G8XjA-141" value="" style="ellipse;whiteSpace=wrap;html=1;aspect=fixed;fillColor=#33FFFF;strokeColor=#000000;" vertex="1" parent="1">
          <mxGeometry x="670" y="1460" width="10" height="10" as="geometry" />
        </mxCell>
        <mxCell id="y1k2q47pjBvPzy8G8XjA-142" value="" style="ellipse;whiteSpace=wrap;html=1;aspect=fixed;fillColor=#00FFFF;strokeColor=#000000;" vertex="1" parent="1">
          <mxGeometry x="710" y="1460" width="10" height="10" as="geometry" />
        </mxCell>
        <mxCell id="y1k2q47pjBvPzy8G8XjA-143" value="" style="endArrow=none;html=1;rounded=0;exitX=0.5;exitY=0;exitDx=0;exitDy=0;entryX=0.5;entryY=0;entryDx=0;entryDy=0;edgeStyle=orthogonalEdgeStyle;curved=1;" edge="1" parent="1" source="y1k2q47pjBvPzy8G8XjA-137" target="y1k2q47pjBvPzy8G8XjA-142">
          <mxGeometry width="50" height="50" relative="1" as="geometry">
            <mxPoint x="600" y="1460" as="sourcePoint" />
            <mxPoint x="650" y="1410" as="targetPoint" />
            <Array as="points">
              <mxPoint x="595" y="1440" />
              <mxPoint x="715" y="1440" />
            </Array>
          </mxGeometry>
        </mxCell>
        <mxCell id="y1k2q47pjBvPzy8G8XjA-144" value="&lt;h6&gt;&lt;font style=&quot;font-size: 21px ; font-weight: normal&quot; face=&quot;Georgia&quot;&gt;ResBlock&lt;/font&gt;&lt;/h6&gt;" style="text;strokeColor=none;fillColor=none;html=1;fontSize=24;fontStyle=1;verticalAlign=middle;align=center;" vertex="1" parent="1">
          <mxGeometry x="620" y="1480" width="70" height="10" as="geometry" />
        </mxCell>
        <mxCell id="y1k2q47pjBvPzy8G8XjA-165" style="edgeStyle=none;rounded=0;jumpSize=6;orthogonalLoop=1;jettySize=auto;html=1;exitX=1;exitY=0.5;exitDx=0;exitDy=0;entryX=0;entryY=0.5;entryDx=0;entryDy=0;fontFamily=Times New Roman;fontSize=21;endArrow=classic;endFill=1;endSize=6;strokeColor=#000000;strokeWidth=4;fillColor=#000000;" edge="1" parent="1" source="y1k2q47pjBvPzy8G8XjA-145" target="y1k2q47pjBvPzy8G8XjA-155">
          <mxGeometry relative="1" as="geometry" />
        </mxCell>
        <mxCell id="y1k2q47pjBvPzy8G8XjA-145" value="" style="rounded=0;whiteSpace=wrap;html=1;align=center;" vertex="1" parent="1">
          <mxGeometry x="780" y="1430" width="150" height="70" as="geometry" />
        </mxCell>
        <mxCell id="y1k2q47pjBvPzy8G8XjA-146" style="edgeStyle=orthogonalEdgeStyle;rounded=0;orthogonalLoop=1;jettySize=auto;html=1;exitX=1;exitY=0.5;exitDx=0;exitDy=0;entryX=0;entryY=0.5;entryDx=0;entryDy=0;" edge="1" parent="1" source="y1k2q47pjBvPzy8G8XjA-147" target="y1k2q47pjBvPzy8G8XjA-149">
          <mxGeometry relative="1" as="geometry" />
        </mxCell>
        <mxCell id="y1k2q47pjBvPzy8G8XjA-147" value="" style="ellipse;whiteSpace=wrap;html=1;aspect=fixed;fillColor=#FF99CC;strokeColor=#000000;" vertex="1" parent="1">
          <mxGeometry x="790" y="1460" width="10" height="10" as="geometry" />
        </mxCell>
        <mxCell id="y1k2q47pjBvPzy8G8XjA-148" style="edgeStyle=orthogonalEdgeStyle;rounded=0;orthogonalLoop=1;jettySize=auto;html=1;exitX=1;exitY=0.5;exitDx=0;exitDy=0;entryX=0;entryY=0.5;entryDx=0;entryDy=0;" edge="1" parent="1" source="y1k2q47pjBvPzy8G8XjA-149" target="y1k2q47pjBvPzy8G8XjA-151">
          <mxGeometry relative="1" as="geometry" />
        </mxCell>
        <mxCell id="y1k2q47pjBvPzy8G8XjA-149" value="" style="ellipse;whiteSpace=wrap;html=1;aspect=fixed;fillColor=#FF66B3;strokeColor=#000000;" vertex="1" parent="1">
          <mxGeometry x="830" y="1460" width="10" height="10" as="geometry" />
        </mxCell>
        <mxCell id="y1k2q47pjBvPzy8G8XjA-150" style="edgeStyle=orthogonalEdgeStyle;rounded=0;orthogonalLoop=1;jettySize=auto;html=1;exitX=1;exitY=0.5;exitDx=0;exitDy=0;entryX=0;entryY=0.5;entryDx=0;entryDy=0;" edge="1" parent="1" source="y1k2q47pjBvPzy8G8XjA-151" target="y1k2q47pjBvPzy8G8XjA-152">
          <mxGeometry relative="1" as="geometry" />
        </mxCell>
        <mxCell id="y1k2q47pjBvPzy8G8XjA-151" value="" style="ellipse;whiteSpace=wrap;html=1;aspect=fixed;fillColor=#FF3399;strokeColor=#000000;" vertex="1" parent="1">
          <mxGeometry x="870" y="1460" width="10" height="10" as="geometry" />
        </mxCell>
        <mxCell id="y1k2q47pjBvPzy8G8XjA-152" value="" style="ellipse;whiteSpace=wrap;html=1;aspect=fixed;fillColor=#FF0080;strokeColor=#000000;" vertex="1" parent="1">
          <mxGeometry x="910" y="1460" width="10" height="10" as="geometry" />
        </mxCell>
        <mxCell id="y1k2q47pjBvPzy8G8XjA-153" value="" style="endArrow=none;html=1;rounded=0;exitX=0.5;exitY=0;exitDx=0;exitDy=0;entryX=0.5;entryY=0;entryDx=0;entryDy=0;edgeStyle=orthogonalEdgeStyle;curved=1;" edge="1" parent="1" source="y1k2q47pjBvPzy8G8XjA-147" target="y1k2q47pjBvPzy8G8XjA-152">
          <mxGeometry width="50" height="50" relative="1" as="geometry">
            <mxPoint x="800" y="1460" as="sourcePoint" />
            <mxPoint x="850" y="1410" as="targetPoint" />
            <Array as="points">
              <mxPoint x="795" y="1440" />
              <mxPoint x="915" y="1440" />
            </Array>
          </mxGeometry>
        </mxCell>
        <mxCell id="y1k2q47pjBvPzy8G8XjA-154" value="&lt;h6&gt;&lt;font style=&quot;font-size: 21px ; font-weight: normal&quot; face=&quot;Georgia&quot;&gt;ResBlock&lt;/font&gt;&lt;/h6&gt;" style="text;strokeColor=none;fillColor=none;html=1;fontSize=24;fontStyle=1;verticalAlign=middle;align=center;" vertex="1" parent="1">
          <mxGeometry x="820" y="1480" width="70" height="10" as="geometry" />
        </mxCell>
        <mxCell id="y1k2q47pjBvPzy8G8XjA-167" value="" style="edgeStyle=none;rounded=0;jumpSize=6;orthogonalLoop=1;jettySize=auto;html=1;fontFamily=Times New Roman;fontSize=21;endArrow=classic;endFill=1;endSize=6;strokeColor=#000000;strokeWidth=4;fillColor=#000000;" edge="1" parent="1" source="y1k2q47pjBvPzy8G8XjA-155" target="y1k2q47pjBvPzy8G8XjA-166">
          <mxGeometry relative="1" as="geometry" />
        </mxCell>
        <mxCell id="y1k2q47pjBvPzy8G8XjA-155" value="" style="rounded=0;whiteSpace=wrap;html=1;fontFamily=Georgia;fontSize=21;align=center;strokeColor=#000000;" vertex="1" parent="1">
          <mxGeometry x="970" y="1400" width="70" height="130" as="geometry" />
        </mxCell>
        <mxCell id="y1k2q47pjBvPzy8G8XjA-156" style="edgeStyle=none;rounded=0;jumpSize=6;orthogonalLoop=1;jettySize=auto;html=1;exitX=0.5;exitY=0;exitDx=0;exitDy=0;fontFamily=Georgia;fontSize=21;endArrow=classic;endFill=1;endSize=6;strokeColor=#000000;strokeWidth=4;fillColor=#000000;" edge="1" parent="1" source="y1k2q47pjBvPzy8G8XjA-155" target="y1k2q47pjBvPzy8G8XjA-155">
          <mxGeometry relative="1" as="geometry" />
        </mxCell>
        <mxCell id="y1k2q47pjBvPzy8G8XjA-157" value="" style="ellipse;whiteSpace=wrap;html=1;aspect=fixed;fillColor=#FF8000;strokeColor=#36393d;" vertex="1" parent="1">
          <mxGeometry x="980" y="1440" width="10" height="10" as="geometry" />
        </mxCell>
        <mxCell id="y1k2q47pjBvPzy8G8XjA-158" value="" style="ellipse;whiteSpace=wrap;html=1;aspect=fixed;fillColor=#00FFFF;strokeColor=#000000;" vertex="1" parent="1">
          <mxGeometry x="980" y="1470" width="10" height="10" as="geometry" />
        </mxCell>
        <mxCell id="y1k2q47pjBvPzy8G8XjA-159" value="" style="ellipse;whiteSpace=wrap;html=1;aspect=fixed;fillColor=#00FF00;strokeColor=#000000;" vertex="1" parent="1">
          <mxGeometry x="980" y="1410" width="10" height="10" as="geometry" />
        </mxCell>
        <mxCell id="y1k2q47pjBvPzy8G8XjA-161" value="" style="ellipse;whiteSpace=wrap;html=1;aspect=fixed;fillColor=#FF0080;strokeColor=#000000;" vertex="1" parent="1">
          <mxGeometry x="980" y="1500" width="10" height="10" as="geometry" />
        </mxCell>
        <mxCell id="y1k2q47pjBvPzy8G8XjA-163" value="Fc layer4" style="text;strokeColor=none;fillColor=none;html=1;fontSize=24;fontStyle=0;verticalAlign=middle;align=center;fontFamily=Times New Roman;rotation=-90;" vertex="1" parent="1">
          <mxGeometry x="950" y="1445" width="130" height="40" as="geometry" />
        </mxCell>
        <mxCell id="y1k2q47pjBvPzy8G8XjA-248" style="edgeStyle=orthogonalEdgeStyle;curved=1;jumpSize=6;orthogonalLoop=1;jettySize=auto;html=1;exitX=1;exitY=0.5;exitDx=0;exitDy=0;entryX=0.5;entryY=1;entryDx=0;entryDy=0;fontFamily=Times New Roman;fontSize=21;endArrow=classic;endFill=1;endSize=6;strokeColor=#000000;strokeWidth=2;fillColor=#000000;" edge="1" parent="1" source="y1k2q47pjBvPzy8G8XjA-166" target="y1k2q47pjBvPzy8G8XjA-242">
          <mxGeometry relative="1" as="geometry" />
        </mxCell>
        <mxCell id="y1k2q47pjBvPzy8G8XjA-166" value="" style="rounded=0;whiteSpace=wrap;html=1;fontFamily=Times New Roman;fontSize=21;align=center;" vertex="1" parent="1">
          <mxGeometry x="1090" y="1420" width="50" height="90" as="geometry" />
        </mxCell>
        <mxCell id="y1k2q47pjBvPzy8G8XjA-168" value="Softmax" style="text;strokeColor=none;fillColor=none;html=1;fontSize=24;fontStyle=0;verticalAlign=middle;align=center;fontFamily=Times New Roman;rotation=-90;" vertex="1" parent="1">
          <mxGeometry x="1075" y="1447.5" width="80" height="35" as="geometry" />
        </mxCell>
        <mxCell id="y1k2q47pjBvPzy8G8XjA-169" value="" style="rounded=0;whiteSpace=wrap;html=1;align=center;" vertex="1" parent="1">
          <mxGeometry x="180" y="1640" width="150" height="70" as="geometry" />
        </mxCell>
        <mxCell id="y1k2q47pjBvPzy8G8XjA-170" value="&lt;h6&gt;&lt;font style=&quot;font-size: 21px ; font-weight: normal&quot; face=&quot;Georgia&quot;&gt;ResBlock&lt;/font&gt;&lt;/h6&gt;" style="text;html=1;fontSize=24;fontStyle=1;verticalAlign=middle;align=center;" vertex="1" parent="1">
          <mxGeometry x="220" y="1690" width="70" height="10" as="geometry" />
        </mxCell>
        <mxCell id="y1k2q47pjBvPzy8G8XjA-171" style="rounded=0;orthogonalLoop=1;jettySize=auto;html=1;exitX=1;exitY=0.5;exitDx=0;exitDy=0;endArrow=classic;endFill=1;strokeColor=#000000;strokeWidth=4;fillColor=#000000;jumpSize=6;endSize=6;" edge="1" parent="1" source="y1k2q47pjBvPzy8G8XjA-169">
          <mxGeometry relative="1" as="geometry">
            <mxPoint x="380" y="1675" as="targetPoint" />
          </mxGeometry>
        </mxCell>
        <mxCell id="y1k2q47pjBvPzy8G8XjA-172" style="edgeStyle=orthogonalEdgeStyle;rounded=0;orthogonalLoop=1;jettySize=auto;html=1;exitX=1;exitY=0.5;exitDx=0;exitDy=0;entryX=0;entryY=0.5;entryDx=0;entryDy=0;" edge="1" parent="1" source="y1k2q47pjBvPzy8G8XjA-173" target="y1k2q47pjBvPzy8G8XjA-175">
          <mxGeometry relative="1" as="geometry" />
        </mxCell>
        <mxCell id="y1k2q47pjBvPzy8G8XjA-173" value="" style="ellipse;whiteSpace=wrap;html=1;aspect=fixed;fillColor=#CCFFCC;strokeColor=#000000;" vertex="1" parent="1">
          <mxGeometry x="190" y="1670" width="10" height="10" as="geometry" />
        </mxCell>
        <mxCell id="y1k2q47pjBvPzy8G8XjA-174" style="edgeStyle=orthogonalEdgeStyle;rounded=0;orthogonalLoop=1;jettySize=auto;html=1;exitX=1;exitY=0.5;exitDx=0;exitDy=0;entryX=0;entryY=0.5;entryDx=0;entryDy=0;" edge="1" parent="1" source="y1k2q47pjBvPzy8G8XjA-175" target="y1k2q47pjBvPzy8G8XjA-177">
          <mxGeometry relative="1" as="geometry" />
        </mxCell>
        <mxCell id="y1k2q47pjBvPzy8G8XjA-175" value="" style="ellipse;whiteSpace=wrap;html=1;aspect=fixed;fillColor=#99FF99;strokeColor=#000000;" vertex="1" parent="1">
          <mxGeometry x="230" y="1670" width="10" height="10" as="geometry" />
        </mxCell>
        <mxCell id="y1k2q47pjBvPzy8G8XjA-176" style="edgeStyle=orthogonalEdgeStyle;rounded=0;orthogonalLoop=1;jettySize=auto;html=1;exitX=1;exitY=0.5;exitDx=0;exitDy=0;entryX=0;entryY=0.5;entryDx=0;entryDy=0;" edge="1" parent="1" source="y1k2q47pjBvPzy8G8XjA-177" target="y1k2q47pjBvPzy8G8XjA-178">
          <mxGeometry relative="1" as="geometry" />
        </mxCell>
        <mxCell id="y1k2q47pjBvPzy8G8XjA-177" value="" style="ellipse;whiteSpace=wrap;html=1;aspect=fixed;fillColor=#33FF33;strokeColor=#000000;" vertex="1" parent="1">
          <mxGeometry x="270" y="1670" width="10" height="10" as="geometry" />
        </mxCell>
        <mxCell id="y1k2q47pjBvPzy8G8XjA-178" value="" style="ellipse;whiteSpace=wrap;html=1;aspect=fixed;fillColor=#00FF00;strokeColor=#000000;" vertex="1" parent="1">
          <mxGeometry x="310" y="1670" width="10" height="10" as="geometry" />
        </mxCell>
        <mxCell id="y1k2q47pjBvPzy8G8XjA-179" value="" style="endArrow=none;html=1;rounded=0;exitX=0.5;exitY=0;exitDx=0;exitDy=0;entryX=0.5;entryY=0;entryDx=0;entryDy=0;edgeStyle=orthogonalEdgeStyle;curved=1;" edge="1" parent="1" source="y1k2q47pjBvPzy8G8XjA-173" target="y1k2q47pjBvPzy8G8XjA-178">
          <mxGeometry width="50" height="50" relative="1" as="geometry">
            <mxPoint x="200" y="1670" as="sourcePoint" />
            <mxPoint x="250" y="1620" as="targetPoint" />
            <Array as="points">
              <mxPoint x="195" y="1650" />
              <mxPoint x="315" y="1650" />
            </Array>
          </mxGeometry>
        </mxCell>
        <mxCell id="y1k2q47pjBvPzy8G8XjA-180" style="edgeStyle=orthogonalEdgeStyle;curved=1;rounded=0;orthogonalLoop=1;jettySize=auto;html=1;exitX=1;exitY=0.5;exitDx=0;exitDy=0;entryX=0;entryY=0.5;entryDx=0;entryDy=0;endArrow=classic;endFill=1;strokeColor=#000000;strokeWidth=4;" edge="1" parent="1">
          <mxGeometry relative="1" as="geometry">
            <mxPoint x="530" y="1675" as="sourcePoint" />
            <mxPoint x="580" y="1675" as="targetPoint" />
          </mxGeometry>
        </mxCell>
        <mxCell id="y1k2q47pjBvPzy8G8XjA-181" style="edgeStyle=orthogonalEdgeStyle;curved=1;rounded=0;orthogonalLoop=1;jettySize=auto;html=1;exitX=1;exitY=0.5;exitDx=0;exitDy=0;entryX=0;entryY=0.5;entryDx=0;entryDy=0;endArrow=classic;endFill=1;strokeColor=#000000;strokeWidth=4;" edge="1" parent="1">
          <mxGeometry relative="1" as="geometry">
            <mxPoint x="730" y="1675" as="sourcePoint" />
            <mxPoint x="780" y="1675" as="targetPoint" />
          </mxGeometry>
        </mxCell>
        <mxCell id="y1k2q47pjBvPzy8G8XjA-182" value="" style="rounded=0;whiteSpace=wrap;html=1;align=center;" vertex="1" parent="1">
          <mxGeometry x="380" y="1640" width="150" height="70" as="geometry" />
        </mxCell>
        <mxCell id="y1k2q47pjBvPzy8G8XjA-183" style="edgeStyle=orthogonalEdgeStyle;rounded=0;orthogonalLoop=1;jettySize=auto;html=1;exitX=1;exitY=0.5;exitDx=0;exitDy=0;entryX=0;entryY=0.5;entryDx=0;entryDy=0;" edge="1" parent="1" source="y1k2q47pjBvPzy8G8XjA-184" target="y1k2q47pjBvPzy8G8XjA-186">
          <mxGeometry relative="1" as="geometry" />
        </mxCell>
        <mxCell id="y1k2q47pjBvPzy8G8XjA-184" value="" style="ellipse;whiteSpace=wrap;html=1;aspect=fixed;fillColor=#FFCC99;strokeColor=#000000;" vertex="1" parent="1">
          <mxGeometry x="390" y="1670" width="10" height="10" as="geometry" />
        </mxCell>
        <mxCell id="y1k2q47pjBvPzy8G8XjA-185" style="edgeStyle=orthogonalEdgeStyle;rounded=0;orthogonalLoop=1;jettySize=auto;html=1;exitX=1;exitY=0.5;exitDx=0;exitDy=0;entryX=0;entryY=0.5;entryDx=0;entryDy=0;" edge="1" parent="1" source="y1k2q47pjBvPzy8G8XjA-186" target="y1k2q47pjBvPzy8G8XjA-188">
          <mxGeometry relative="1" as="geometry" />
        </mxCell>
        <mxCell id="y1k2q47pjBvPzy8G8XjA-186" value="" style="ellipse;whiteSpace=wrap;html=1;aspect=fixed;fillColor=#FFB366;strokeColor=default;" vertex="1" parent="1">
          <mxGeometry x="430" y="1670" width="10" height="10" as="geometry" />
        </mxCell>
        <mxCell id="y1k2q47pjBvPzy8G8XjA-187" style="edgeStyle=orthogonalEdgeStyle;rounded=0;orthogonalLoop=1;jettySize=auto;html=1;exitX=1;exitY=0.5;exitDx=0;exitDy=0;entryX=0;entryY=0.5;entryDx=0;entryDy=0;" edge="1" parent="1" source="y1k2q47pjBvPzy8G8XjA-188" target="y1k2q47pjBvPzy8G8XjA-189">
          <mxGeometry relative="1" as="geometry" />
        </mxCell>
        <mxCell id="y1k2q47pjBvPzy8G8XjA-188" value="" style="ellipse;whiteSpace=wrap;html=1;aspect=fixed;fillColor=#FFB366;strokeColor=#000000;" vertex="1" parent="1">
          <mxGeometry x="470" y="1670" width="10" height="10" as="geometry" />
        </mxCell>
        <mxCell id="y1k2q47pjBvPzy8G8XjA-189" value="" style="ellipse;whiteSpace=wrap;html=1;aspect=fixed;fillColor=#FF8000;strokeColor=#36393d;" vertex="1" parent="1">
          <mxGeometry x="510" y="1670" width="10" height="10" as="geometry" />
        </mxCell>
        <mxCell id="y1k2q47pjBvPzy8G8XjA-190" value="" style="endArrow=none;html=1;rounded=0;exitX=0.5;exitY=0;exitDx=0;exitDy=0;entryX=0.5;entryY=0;entryDx=0;entryDy=0;edgeStyle=orthogonalEdgeStyle;curved=1;" edge="1" parent="1" source="y1k2q47pjBvPzy8G8XjA-184" target="y1k2q47pjBvPzy8G8XjA-189">
          <mxGeometry width="50" height="50" relative="1" as="geometry">
            <mxPoint x="400" y="1670" as="sourcePoint" />
            <mxPoint x="450" y="1620" as="targetPoint" />
            <Array as="points">
              <mxPoint x="395" y="1650" />
              <mxPoint x="515" y="1650" />
            </Array>
          </mxGeometry>
        </mxCell>
        <mxCell id="y1k2q47pjBvPzy8G8XjA-191" value="&lt;h6&gt;&lt;font style=&quot;font-size: 21px ; font-weight: normal&quot; face=&quot;Georgia&quot;&gt;ResBlock&lt;/font&gt;&lt;/h6&gt;" style="text;strokeColor=none;fillColor=none;html=1;fontSize=24;fontStyle=1;verticalAlign=middle;align=center;" vertex="1" parent="1">
          <mxGeometry x="420" y="1690" width="70" height="10" as="geometry" />
        </mxCell>
        <mxCell id="y1k2q47pjBvPzy8G8XjA-192" value="" style="rounded=0;whiteSpace=wrap;html=1;align=center;" vertex="1" parent="1">
          <mxGeometry x="580" y="1640" width="150" height="70" as="geometry" />
        </mxCell>
        <mxCell id="y1k2q47pjBvPzy8G8XjA-193" style="edgeStyle=orthogonalEdgeStyle;rounded=0;orthogonalLoop=1;jettySize=auto;html=1;exitX=1;exitY=0.5;exitDx=0;exitDy=0;entryX=0;entryY=0.5;entryDx=0;entryDy=0;" edge="1" parent="1" source="y1k2q47pjBvPzy8G8XjA-194" target="y1k2q47pjBvPzy8G8XjA-196">
          <mxGeometry relative="1" as="geometry" />
        </mxCell>
        <mxCell id="y1k2q47pjBvPzy8G8XjA-194" value="" style="ellipse;whiteSpace=wrap;html=1;aspect=fixed;fillColor=#99FFFF;strokeColor=#000000;" vertex="1" parent="1">
          <mxGeometry x="590" y="1670" width="10" height="10" as="geometry" />
        </mxCell>
        <mxCell id="y1k2q47pjBvPzy8G8XjA-195" style="edgeStyle=orthogonalEdgeStyle;rounded=0;orthogonalLoop=1;jettySize=auto;html=1;exitX=1;exitY=0.5;exitDx=0;exitDy=0;entryX=0;entryY=0.5;entryDx=0;entryDy=0;" edge="1" parent="1" source="y1k2q47pjBvPzy8G8XjA-196" target="y1k2q47pjBvPzy8G8XjA-198">
          <mxGeometry relative="1" as="geometry" />
        </mxCell>
        <mxCell id="y1k2q47pjBvPzy8G8XjA-196" value="" style="ellipse;whiteSpace=wrap;html=1;aspect=fixed;fillColor=#66FFFF;strokeColor=#000000;" vertex="1" parent="1">
          <mxGeometry x="630" y="1670" width="10" height="10" as="geometry" />
        </mxCell>
        <mxCell id="y1k2q47pjBvPzy8G8XjA-197" style="edgeStyle=orthogonalEdgeStyle;rounded=0;orthogonalLoop=1;jettySize=auto;html=1;exitX=1;exitY=0.5;exitDx=0;exitDy=0;entryX=0;entryY=0.5;entryDx=0;entryDy=0;" edge="1" parent="1" source="y1k2q47pjBvPzy8G8XjA-198" target="y1k2q47pjBvPzy8G8XjA-199">
          <mxGeometry relative="1" as="geometry" />
        </mxCell>
        <mxCell id="y1k2q47pjBvPzy8G8XjA-198" value="" style="ellipse;whiteSpace=wrap;html=1;aspect=fixed;fillColor=#33FFFF;strokeColor=#000000;" vertex="1" parent="1">
          <mxGeometry x="670" y="1670" width="10" height="10" as="geometry" />
        </mxCell>
        <mxCell id="y1k2q47pjBvPzy8G8XjA-199" value="" style="ellipse;whiteSpace=wrap;html=1;aspect=fixed;fillColor=#00FFFF;strokeColor=#000000;" vertex="1" parent="1">
          <mxGeometry x="710" y="1670" width="10" height="10" as="geometry" />
        </mxCell>
        <mxCell id="y1k2q47pjBvPzy8G8XjA-200" value="" style="endArrow=none;html=1;rounded=0;exitX=0.5;exitY=0;exitDx=0;exitDy=0;entryX=0.5;entryY=0;entryDx=0;entryDy=0;edgeStyle=orthogonalEdgeStyle;curved=1;" edge="1" parent="1" source="y1k2q47pjBvPzy8G8XjA-194" target="y1k2q47pjBvPzy8G8XjA-199">
          <mxGeometry width="50" height="50" relative="1" as="geometry">
            <mxPoint x="600" y="1670" as="sourcePoint" />
            <mxPoint x="650" y="1620" as="targetPoint" />
            <Array as="points">
              <mxPoint x="595" y="1650" />
              <mxPoint x="715" y="1650" />
            </Array>
          </mxGeometry>
        </mxCell>
        <mxCell id="y1k2q47pjBvPzy8G8XjA-201" value="&lt;h6&gt;&lt;font style=&quot;font-size: 21px ; font-weight: normal&quot; face=&quot;Georgia&quot;&gt;ResBlock&lt;/font&gt;&lt;/h6&gt;" style="text;strokeColor=none;fillColor=none;html=1;fontSize=24;fontStyle=1;verticalAlign=middle;align=center;" vertex="1" parent="1">
          <mxGeometry x="620" y="1690" width="70" height="10" as="geometry" />
        </mxCell>
        <mxCell id="y1k2q47pjBvPzy8G8XjA-202" style="edgeStyle=none;rounded=0;jumpSize=6;orthogonalLoop=1;jettySize=auto;html=1;exitX=1;exitY=0.5;exitDx=0;exitDy=0;entryX=0;entryY=0.5;entryDx=0;entryDy=0;fontFamily=Times New Roman;fontSize=21;endArrow=classic;endFill=1;endSize=6;strokeColor=#000000;strokeWidth=4;fillColor=#000000;" edge="1" parent="1" source="y1k2q47pjBvPzy8G8XjA-203" target="y1k2q47pjBvPzy8G8XjA-214">
          <mxGeometry relative="1" as="geometry" />
        </mxCell>
        <mxCell id="y1k2q47pjBvPzy8G8XjA-203" value="" style="rounded=0;whiteSpace=wrap;html=1;align=center;" vertex="1" parent="1">
          <mxGeometry x="780" y="1640" width="150" height="70" as="geometry" />
        </mxCell>
        <mxCell id="y1k2q47pjBvPzy8G8XjA-204" style="edgeStyle=orthogonalEdgeStyle;rounded=0;orthogonalLoop=1;jettySize=auto;html=1;exitX=1;exitY=0.5;exitDx=0;exitDy=0;entryX=0;entryY=0.5;entryDx=0;entryDy=0;" edge="1" parent="1" source="y1k2q47pjBvPzy8G8XjA-205" target="y1k2q47pjBvPzy8G8XjA-207">
          <mxGeometry relative="1" as="geometry" />
        </mxCell>
        <mxCell id="y1k2q47pjBvPzy8G8XjA-205" value="" style="ellipse;whiteSpace=wrap;html=1;aspect=fixed;fillColor=#FF99CC;strokeColor=#000000;" vertex="1" parent="1">
          <mxGeometry x="790" y="1670" width="10" height="10" as="geometry" />
        </mxCell>
        <mxCell id="y1k2q47pjBvPzy8G8XjA-206" style="edgeStyle=orthogonalEdgeStyle;rounded=0;orthogonalLoop=1;jettySize=auto;html=1;exitX=1;exitY=0.5;exitDx=0;exitDy=0;entryX=0;entryY=0.5;entryDx=0;entryDy=0;" edge="1" parent="1" source="y1k2q47pjBvPzy8G8XjA-207" target="y1k2q47pjBvPzy8G8XjA-209">
          <mxGeometry relative="1" as="geometry" />
        </mxCell>
        <mxCell id="y1k2q47pjBvPzy8G8XjA-207" value="" style="ellipse;whiteSpace=wrap;html=1;aspect=fixed;fillColor=#FF66B3;strokeColor=#000000;" vertex="1" parent="1">
          <mxGeometry x="830" y="1670" width="10" height="10" as="geometry" />
        </mxCell>
        <mxCell id="y1k2q47pjBvPzy8G8XjA-208" style="edgeStyle=orthogonalEdgeStyle;rounded=0;orthogonalLoop=1;jettySize=auto;html=1;exitX=1;exitY=0.5;exitDx=0;exitDy=0;entryX=0;entryY=0.5;entryDx=0;entryDy=0;" edge="1" parent="1" source="y1k2q47pjBvPzy8G8XjA-209" target="y1k2q47pjBvPzy8G8XjA-210">
          <mxGeometry relative="1" as="geometry" />
        </mxCell>
        <mxCell id="y1k2q47pjBvPzy8G8XjA-209" value="" style="ellipse;whiteSpace=wrap;html=1;aspect=fixed;fillColor=#FF3399;strokeColor=#000000;" vertex="1" parent="1">
          <mxGeometry x="870" y="1670" width="10" height="10" as="geometry" />
        </mxCell>
        <mxCell id="y1k2q47pjBvPzy8G8XjA-210" value="" style="ellipse;whiteSpace=wrap;html=1;aspect=fixed;fillColor=#FF0080;strokeColor=#000000;" vertex="1" parent="1">
          <mxGeometry x="910" y="1670" width="10" height="10" as="geometry" />
        </mxCell>
        <mxCell id="y1k2q47pjBvPzy8G8XjA-211" value="" style="endArrow=none;html=1;rounded=0;exitX=0.5;exitY=0;exitDx=0;exitDy=0;entryX=0.5;entryY=0;entryDx=0;entryDy=0;edgeStyle=orthogonalEdgeStyle;curved=1;" edge="1" parent="1" source="y1k2q47pjBvPzy8G8XjA-205" target="y1k2q47pjBvPzy8G8XjA-210">
          <mxGeometry width="50" height="50" relative="1" as="geometry">
            <mxPoint x="800" y="1670" as="sourcePoint" />
            <mxPoint x="850" y="1620" as="targetPoint" />
            <Array as="points">
              <mxPoint x="795" y="1650" />
              <mxPoint x="915" y="1650" />
            </Array>
          </mxGeometry>
        </mxCell>
        <mxCell id="y1k2q47pjBvPzy8G8XjA-212" value="&lt;h6&gt;&lt;font style=&quot;font-size: 21px ; font-weight: normal&quot; face=&quot;Georgia&quot;&gt;ResBlock&lt;/font&gt;&lt;/h6&gt;" style="text;strokeColor=none;fillColor=none;html=1;fontSize=24;fontStyle=1;verticalAlign=middle;align=center;" vertex="1" parent="1">
          <mxGeometry x="820" y="1690" width="70" height="10" as="geometry" />
        </mxCell>
        <mxCell id="y1k2q47pjBvPzy8G8XjA-213" value="" style="edgeStyle=none;rounded=0;jumpSize=6;orthogonalLoop=1;jettySize=auto;html=1;fontFamily=Times New Roman;fontSize=21;endArrow=classic;endFill=1;endSize=6;strokeColor=#000000;strokeWidth=4;fillColor=#000000;" edge="1" parent="1" source="y1k2q47pjBvPzy8G8XjA-214" target="y1k2q47pjBvPzy8G8XjA-221">
          <mxGeometry relative="1" as="geometry" />
        </mxCell>
        <mxCell id="y1k2q47pjBvPzy8G8XjA-214" value="" style="rounded=0;whiteSpace=wrap;html=1;fontFamily=Georgia;fontSize=21;align=center;strokeColor=#000000;" vertex="1" parent="1">
          <mxGeometry x="970" y="1610" width="70" height="130" as="geometry" />
        </mxCell>
        <mxCell id="y1k2q47pjBvPzy8G8XjA-215" style="edgeStyle=none;rounded=0;jumpSize=6;orthogonalLoop=1;jettySize=auto;html=1;exitX=0.5;exitY=0;exitDx=0;exitDy=0;fontFamily=Georgia;fontSize=21;endArrow=classic;endFill=1;endSize=6;strokeColor=#000000;strokeWidth=4;fillColor=#000000;" edge="1" parent="1" source="y1k2q47pjBvPzy8G8XjA-214" target="y1k2q47pjBvPzy8G8XjA-214">
          <mxGeometry relative="1" as="geometry" />
        </mxCell>
        <mxCell id="y1k2q47pjBvPzy8G8XjA-216" value="" style="ellipse;whiteSpace=wrap;html=1;aspect=fixed;fillColor=#FF8000;strokeColor=#36393d;" vertex="1" parent="1">
          <mxGeometry x="980" y="1650" width="10" height="10" as="geometry" />
        </mxCell>
        <mxCell id="y1k2q47pjBvPzy8G8XjA-217" value="" style="ellipse;whiteSpace=wrap;html=1;aspect=fixed;fillColor=#00FFFF;strokeColor=#000000;" vertex="1" parent="1">
          <mxGeometry x="980" y="1680" width="10" height="10" as="geometry" />
        </mxCell>
        <mxCell id="y1k2q47pjBvPzy8G8XjA-218" value="" style="ellipse;whiteSpace=wrap;html=1;aspect=fixed;fillColor=#00FF00;strokeColor=#000000;" vertex="1" parent="1">
          <mxGeometry x="980" y="1620" width="10" height="10" as="geometry" />
        </mxCell>
        <mxCell id="y1k2q47pjBvPzy8G8XjA-219" value="" style="ellipse;whiteSpace=wrap;html=1;aspect=fixed;fillColor=#FF0080;strokeColor=#000000;" vertex="1" parent="1">
          <mxGeometry x="980" y="1710" width="10" height="10" as="geometry" />
        </mxCell>
        <mxCell id="y1k2q47pjBvPzy8G8XjA-220" value="Fc layer4" style="text;strokeColor=none;fillColor=none;html=1;fontSize=24;fontStyle=0;verticalAlign=middle;align=center;fontFamily=Times New Roman;rotation=-90;" vertex="1" parent="1">
          <mxGeometry x="950" y="1655" width="130" height="40" as="geometry" />
        </mxCell>
        <mxCell id="y1k2q47pjBvPzy8G8XjA-221" value="" style="rounded=0;whiteSpace=wrap;html=1;fontFamily=Times New Roman;fontSize=21;align=center;" vertex="1" parent="1">
          <mxGeometry x="1090" y="1630" width="50" height="90" as="geometry" />
        </mxCell>
        <mxCell id="y1k2q47pjBvPzy8G8XjA-222" value="Softmax" style="text;strokeColor=none;fillColor=none;html=1;fontSize=24;fontStyle=0;verticalAlign=middle;align=center;fontFamily=Times New Roman;rotation=-90;" vertex="1" parent="1">
          <mxGeometry x="1075" y="1657.5" width="80" height="35" as="geometry" />
        </mxCell>
        <mxCell id="y1k2q47pjBvPzy8G8XjA-228" style="edgeStyle=none;rounded=0;jumpSize=6;orthogonalLoop=1;jettySize=auto;html=1;exitX=1;exitY=0.5;exitDx=0;exitDy=0;entryX=0;entryY=0.5;entryDx=0;entryDy=0;fontFamily=Times New Roman;fontSize=21;endArrow=classic;endFill=1;endSize=6;strokeColor=#000000;strokeWidth=4;fillColor=#000000;" edge="1" parent="1" source="y1k2q47pjBvPzy8G8XjA-224" target="y1k2q47pjBvPzy8G8XjA-68">
          <mxGeometry relative="1" as="geometry" />
        </mxCell>
        <mxCell id="y1k2q47pjBvPzy8G8XjA-224" value="" style="whiteSpace=wrap;html=1;aspect=fixed;fontFamily=Times New Roman;fontSize=21;align=center;" vertex="1" parent="1">
          <mxGeometry x="40" y="1425" width="80" height="80" as="geometry" />
        </mxCell>
        <mxCell id="y1k2q47pjBvPzy8G8XjA-230" style="edgeStyle=none;rounded=0;jumpSize=6;orthogonalLoop=1;jettySize=auto;html=1;exitX=1;exitY=0.5;exitDx=0;exitDy=0;fontFamily=Times New Roman;fontSize=21;endArrow=classic;endFill=1;endSize=6;strokeColor=#000000;strokeWidth=4;fillColor=#000000;entryX=0;entryY=0.571;entryDx=0;entryDy=0;entryPerimeter=0;" edge="1" parent="1" source="y1k2q47pjBvPzy8G8XjA-227" target="y1k2q47pjBvPzy8G8XjA-169">
          <mxGeometry relative="1" as="geometry">
            <mxPoint x="170" y="1680" as="targetPoint" />
          </mxGeometry>
        </mxCell>
        <mxCell id="y1k2q47pjBvPzy8G8XjA-227" value="" style="whiteSpace=wrap;html=1;aspect=fixed;fontFamily=Times New Roman;fontSize=21;align=center;" vertex="1" parent="1">
          <mxGeometry x="40" y="1640" width="80" height="80" as="geometry" />
        </mxCell>
        <mxCell id="y1k2q47pjBvPzy8G8XjA-231" value="label" style="text;strokeColor=none;fillColor=none;html=1;fontSize=24;fontStyle=1;verticalAlign=middle;align=center;fontFamily=Times New Roman;" vertex="1" parent="1">
          <mxGeometry x="1030" y="1320" width="100" height="40" as="geometry" />
        </mxCell>
        <mxCell id="y1k2q47pjBvPzy8G8XjA-242" value="L&lt;sub&gt;CE&lt;/sub&gt;" style="ellipse;whiteSpace=wrap;html=1;aspect=fixed;fontFamily=Times New Roman;fontSize=21;align=center;" vertex="1" parent="1">
          <mxGeometry x="1200" y="1380" width="50" height="50" as="geometry" />
        </mxCell>
        <mxCell id="y1k2q47pjBvPzy8G8XjA-249" value="A&lt;sub&gt;res&lt;/sub&gt;" style="ellipse;whiteSpace=wrap;html=1;aspect=fixed;fontFamily=Times New Roman;fontSize=21;align=center;" vertex="1" parent="1">
          <mxGeometry x="1200" y="1570" width="50" height="50" as="geometry" />
        </mxCell>
      </root>
    </mxGraphModel>
  </diagram>
</mxfile>
